{
copyright = tangentsnowball;
date = "2012-01-05 09:51:22 +0000";
designer = "Tangent Snowball";
designerURL = www.tangentsnowball.com;
familyName = "Snowcone";
fontMaster = (
{
ascender = 800;
capHeight = 700;
descender = "-200";
id = "5DF6A5AF-1C8C-47E3-A702-CFF98FD4A394";
xHeight = 500;
}
);
glyphs = (
{
glyphname = A;
layers = (
{
layerId = "5DF6A5AF-1C8C-47E3-A702-CFF98FD4A394";
name = Regular;
paths = (
{
closed = 1;
nodes = (
"482 644 LINE SMOOTH",
"436 719 OFFCURVE",
"362 719 OFFCURVE",
"316 644 CURVE SMOOTH",
"8 138 LINE SMOOTH",
"-38 63 OFFCURVE",
"-3 2 OFFCURVE",
"85 2 CURVE SMOOTH",
"713 2 LINE SMOOTH",
"801 2 OFFCURVE",
"836 63 OFFCURVE",
"790 138 CURVE SMOOTH"
);
},
{
closed = 1;
nodes = (
"339 540 OFFCURVE",
"365 566 OFFCURVE",
"398 566 CURVE SMOOTH",
"431 566 OFFCURVE",
"457 540 OFFCURVE",
"457 507 CURVE SMOOTH",
"457 280 LINE SMOOTH",
"457 248 OFFCURVE",
"431 221 OFFCURVE",
"398 221 CURVE SMOOTH",
"365 221 OFFCURVE",
"339 248 OFFCURVE",
"339 280 CURVE SMOOTH",
"339 507 LINE SMOOTH"
);
},
{
closed = 1;
nodes = (
"362 48 OFFCURVE",
"332 77 OFFCURVE",
"332 114 CURVE SMOOTH",
"332 150 OFFCURVE",
"362 180 OFFCURVE",
"398 180 CURVE SMOOTH",
"434 180 OFFCURVE",
"464 150 OFFCURVE",
"464 114 CURVE SMOOTH",
"464 77 OFFCURVE",
"434 48 OFFCURVE",
"398 48 CURVE SMOOTH"
);
}
);
width = 800;
}
);
unicode = 0041;
},
{
glyphname = B;
layers = (
{
layerId = "5DF6A5AF-1C8C-47E3-A702-CFF98FD4A394";
name = Regular;
paths = (
{
closed = 1;
nodes = (
"512 353 LINE",
"731 572 LINE SMOOTH",
"761 602 OFFCURVE",
"761 649 OFFCURVE",
"731 679 CURVE SMOOTH",
"702 708 OFFCURVE",
"654 708 OFFCURVE",
"624 679 CURVE SMOOTH",
"405 460 LINE",
"186 679 LINE SMOOTH",
"157 708 OFFCURVE",
"109 708 OFFCURVE",
"79 679 CURVE SMOOTH",
"50 649 OFFCURVE",
"50 602 OFFCURVE",
"79 572 CURVE SMOOTH",
"299 353 LINE",
"79 134 LINE SMOOTH",
"50 104 OFFCURVE",
"50 57 OFFCURVE",
"79 27 CURVE SMOOTH",
"109 -3 OFFCURVE",
"157 -3 OFFCURVE",
"186 27 CURVE SMOOTH",
"405 246 LINE",
"624 27 LINE SMOOTH",
"654 -3 OFFCURVE",
"702 -3 OFFCURVE",
"731 27 CURVE SMOOTH",
"761 57 OFFCURVE",
"761 104 OFFCURVE",
"731 134 CURVE SMOOTH"
);
}
);
width = 800;
}
);
unicode = 0042;
},
{
glyphname = C;
layers = (
{
layerId = "5DF6A5AF-1C8C-47E3-A702-CFF98FD4A394";
name = Regular;
paths = (
{
closed = 1;
nodes = (
"694 672 OFFCURVE",
"710 627 OFFCURVE",
"691 590 CURVE SMOOTH",
"427 43 LINE SMOOTH",
"408 6 OFFCURVE",
"363 -10 OFFCURVE",
"325 9 CURVE",
"325 9 LINE",
"288 27 OFFCURVE",
"273 73 OFFCURVE",
"291 110 CURVE SMOOTH",
"556 657 LINE SMOOTH",
"574 694 OFFCURVE",
"619 709 OFFCURVE",
"657 691 CURVE SMOOTH"
);
},
{
closed = 1;
nodes = (
"173 376 OFFCURVE",
"221 371 OFFCURVE",
"247 338 CURVE SMOOTH",
"415 127 LINE SMOOTH",
"440 94 OFFCURVE",
"435 46 OFFCURVE",
"402 20 CURVE",
"402 20 LINE",
"370 -5 OFFCURVE",
"322 0 OFFCURVE",
"296 33 CURVE SMOOTH",
"128 244 LINE SMOOTH",
"102 277 OFFCURVE",
"108 325 OFFCURVE",
"141 350 CURVE SMOOTH"
);
}
);
width = 800;
}
);
unicode = 0043;
},
{
glyphname = D;
layers = (
{
layerId = "5DF6A5AF-1C8C-47E3-A702-CFF98FD4A394";
name = Regular;
paths = (
{
closed = 1;
nodes = (
"356 -7 OFFCURVE",
"322 27 OFFCURVE",
"322 69 CURVE",
"322 627 LINE",
"322 668 OFFCURVE",
"356 702 OFFCURVE",
"398 702 CURVE",
"398 702 LINE",
"439 702 OFFCURVE",
"473 668 OFFCURVE",
"473 627 CURVE SMOOTH",
"473 69 LINE SMOOTH",
"473 27 OFFCURVE",
"439 -7 OFFCURVE",
"398 -7 CURVE SMOOTH"
);
},
{
closed = 1;
nodes = (
"752 306 OFFCURVE",
"718 272 OFFCURVE",
"677 272 CURVE SMOOTH",
"119 272 LINE SMOOTH",
"77 272 OFFCURVE",
"43 306 OFFCURVE",
"43 348 CURVE",
"43 348 LINE",
"43 389 OFFCURVE",
"77 423 OFFCURVE",
"119 423 CURVE SMOOTH",
"677 423 LINE SMOOTH",
"718 423 OFFCURVE",
"752 389 OFFCURVE",
"752 348 CURVE SMOOTH"
);
}
);
width = 800;
}
);
unicode = 0044;
},
{
glyphname = E;
layers = (
{
layerId = "5DF6A5AF-1C8C-47E3-A702-CFF98FD4A394";
name = Regular;
paths = (
{
closed = 1;
nodes = (
"754 293 OFFCURVE",
"720 259 OFFCURVE",
"679 259 CURVE SMOOTH",
"121 259 LINE SMOOTH",
"79 259 OFFCURVE",
"45 293 OFFCURVE",
"45 335 CURVE",
"45 335 LINE",
"45 377 OFFCURVE",
"79 411 OFFCURVE",
"121 411 CURVE SMOOTH",
"679 411 LINE SMOOTH",
"720 411 OFFCURVE",
"754 377 OFFCURVE",
"754 335 CURVE SMOOTH"
);
}
);
width = 800;
}
);
unicode = 0045;
},
{
glyphname = F;
layers = (
{
layerId = "5DF6A5AF-1C8C-47E3-A702-CFF98FD4A394";
name = Regular;
paths = (
{
closed = 1;
nodes = (
"160 696 OFFCURVE",
"-35 348 OFFCURVE",
"-35 348 CURVE SMOOTH",
"-35 348 OFFCURVE",
"160 0 OFFCURVE",
"401 0 CURVE SMOOTH",
"642 0 OFFCURVE",
"838 348 OFFCURVE",
"838 348 CURVE SMOOTH",
"838 348 OFFCURVE",
"642 696 OFFCURVE",
"401 696 CURVE SMOOTH"
);
},
{
closed = 1;
nodes = (
"282 132 OFFCURVE",
"181 233 OFFCURVE",
"181 357 CURVE SMOOTH",
"181 482 OFFCURVE",
"282 583 OFFCURVE",
"407 583 CURVE SMOOTH",
"532 583 OFFCURVE",
"633 482 OFFCURVE",
"633 357 CURVE SMOOTH",
"633 233 OFFCURVE",
"532 132 OFFCURVE",
"407 132 CURVE SMOOTH"
);
},
{
closed = 1;
nodes = (
"496 293 OFFCURVE",
"454 251 OFFCURVE",
"401 251 CURVE SMOOTH",
"349 251 OFFCURVE",
"306 293 OFFCURVE",
"306 345 CURVE SMOOTH",
"306 398 OFFCURVE",
"349 440 OFFCURVE",
"401 440 CURVE SMOOTH",
"454 440 OFFCURVE",
"496 398 OFFCURVE",
"496 345 CURVE SMOOTH"
);
}
);
width = 800;
}
);
unicode = 0046;
},
{
glyphname = G;
layers = (
{
layerId = "5DF6A5AF-1C8C-47E3-A702-CFF98FD4A394";
name = Regular;
paths = (
{
closed = 1;
nodes = (
"75 481 OFFCURVE",
"74 480 OFFCURVE",
"74 480 CURVE",
"76 478 LINE",
"75 481 LINE"
);
},
{
closed = 1;
nodes = (
"393 735 OFFCURVE",
"210 685 OFFCURVE",
"113 551 CURVE",
"172 461 LINE",
"265 498 LINE",
"324 549 OFFCURVE",
"408 563 OFFCURVE",
"482 527 CURVE SMOOTH",
"570 485 OFFCURVE",
"612 389 OFFCURVE",
"590 300 CURVE",
"678 333 LINE",
"722 226 LINE",
"785 392 OFFCURVE",
"711 581 OFFCURVE",
"547 660 CURVE SMOOTH"
);
},
{
closed = 1;
nodes = (
"512 186 LINE",
"458 151 OFFCURVE",
"387 129 OFFCURVE",
"307 166 CURVE SMOOTH",
"234 201 OFFCURVE",
"192 277 OFFCURVE",
"195 354 CURVE",
"122 299 LINE",
"49 390 LINE",
"32 246 OFFCURVE",
"105 99 OFFCURVE",
"243 33 CURVE SMOOTH",
"375 -31 OFFCURVE",
"528 -4 OFFCURVE",
"630 90 CURVE",
"613 188 LINE"
);
}
);
width = 800;
}
);
unicode = 0047;
},
{
glyphname = H;
layers = (
{
layerId = "5DF6A5AF-1C8C-47E3-A702-CFF98FD4A394";
name = Regular;
paths = (
{
closed = 1;
nodes = (
"747 343 OFFCURVE",
"755 362 OFFCURVE",
"732 385 CURVE SMOOTH",
"434 683 LINE SMOOTH",
"410 706 OFFCURVE",
"372 706 OFFCURVE",
"349 683 CURVE SMOOTH",
"51 385 LINE SMOOTH",
"28 362 OFFCURVE",
"35 343 OFFCURVE",
"68 343 CURVE SMOOTH",
"73 343 LINE SMOOTH",
"106 343 OFFCURVE",
"133 343 OFFCURVE",
"133 343 CURVE",
"133 62 LINE SMOOTH",
"133 29 OFFCURVE",
"160 2 OFFCURVE",
"193 2 CURVE SMOOTH",
"589 2 LINE SMOOTH",
"622 2 OFFCURVE",
"649 29 OFFCURVE",
"649 62 CURVE SMOOTH",
"649 343 LINE",
"649 343 OFFCURVE",
"676 343 OFFCURVE",
"709 343 CURVE SMOOTH",
"714 343 LINE SMOOTH"
);
}
);
width = 800;
}
);
unicode = 0048;
},
{
glyphname = I;
layers = (
{
layerId = "5DF6A5AF-1C8C-47E3-A702-CFF98FD4A394";
name = Regular;
paths = (
{
closed = 1;
nodes = (
"42 560 OFFCURVE",
"54 583 OFFCURVE",
"75 598 CURVE SMOOTH",
"109 621 OFFCURVE",
"156 612 OFFCURVE",
"179 578 CURVE SMOOTH",
"392 264 LINE",
"605 578 LINE SMOOTH",
"628 612 OFFCURVE",
"675 621 OFFCURVE",
"709 598 CURVE SMOOTH",
"743 574 OFFCURVE",
"752 528 OFFCURVE",
"729 493 CURVE SMOOTH",
"454 88 LINE SMOOTH",
"440 68 OFFCURVE",
"417 55 OFFCURVE",
"392 55 CURVE SMOOTH",
"367 55 OFFCURVE",
"344 68 OFFCURVE",
"330 88 CURVE SMOOTH",
"55 493 LINE SMOOTH",
"46 506 OFFCURVE",
"42 521 OFFCURVE",
"42 536 CURVE SMOOTH"
);
}
);
width = 800;
}
);
unicode = 0049;
},
{
glyphname = J;
layers = (
{
layerId = "5DF6A5AF-1C8C-47E3-A702-CFF98FD4A394";
name = Regular;
paths = (
{
closed = 1;
nodes = (
"746 124 OFFCURVE",
"735 100 OFFCURVE",
"713 86 CURVE SMOOTH",
"679 63 OFFCURVE",
"632 71 OFFCURVE",
"609 106 CURVE SMOOTH",
"396 420 LINE",
"183 106 LINE SMOOTH",
"160 71 OFFCURVE",
"113 63 OFFCURVE",
"79 86 CURVE SMOOTH",
"45 109 OFFCURVE",
"36 156 OFFCURVE",
"59 190 CURVE SMOOTH",
"334 595 LINE SMOOTH",
"348 616 OFFCURVE",
"371 628 OFFCURVE",
"396 628 CURVE SMOOTH",
"421 628 OFFCURVE",
"444 616 OFFCURVE",
"458 595 CURVE SMOOTH",
"733 190 LINE SMOOTH",
"742 177 OFFCURVE",
"746 162 OFFCURVE",
"746 148 CURVE SMOOTH"
);
}
);
width = 800;
}
);
unicode = 004A;
},
{
glyphname = K;
layers = (
{
layerId = "5DF6A5AF-1C8C-47E3-A702-CFF98FD4A394";
name = Regular;
paths = (
{
closed = 1;
nodes = (
"211 -4 OFFCURVE",
"187 8 OFFCURVE",
"173 29 CURVE SMOOTH",
"150 64 OFFCURVE",
"159 110 OFFCURVE",
"193 133 CURVE SMOOTH",
"507 346 LINE",
"193 559 LINE SMOOTH",
"159 583 OFFCURVE",
"150 629 OFFCURVE",
"173 663 CURVE SMOOTH",
"196 698 OFFCURVE",
"243 707 OFFCURVE",
"277 683 CURVE SMOOTH",
"682 408 LINE SMOOTH",
"703 394 OFFCURVE",
"715 371 OFFCURVE",
"715 346 CURVE SMOOTH",
"715 321 OFFCURVE",
"703 298 OFFCURVE",
"682 284 CURVE SMOOTH",
"277 9 LINE SMOOTH",
"264 1 OFFCURVE",
"249 -4 OFFCURVE",
"235 -4 CURVE SMOOTH"
);
}
);
width = 800;
}
);
unicode = 004B;
},
{
glyphname = L;
layers = (
{
layerId = "5DF6A5AF-1C8C-47E3-A702-CFF98FD4A394";
name = Regular;
paths = (
{
closed = 1;
nodes = (
"578 0 OFFCURVE",
"563 4 OFFCURVE",
"551 13 CURVE SMOOTH",
"145 288 LINE SMOOTH",
"125 302 OFFCURVE",
"112 325 OFFCURVE",
"112 350 CURVE SMOOTH",
"112 375 OFFCURVE",
"125 398 OFFCURVE",
"145 412 CURVE SMOOTH",
"551 687 LINE SMOOTH",
"585 710 OFFCURVE",
"631 702 OFFCURVE",
"655 667 CURVE SMOOTH",
"678 633 OFFCURVE",
"669 586 OFFCURVE",
"635 563 CURVE SMOOTH",
"321 350 LINE",
"635 137 LINE SMOOTH",
"669 114 OFFCURVE",
"678 67 OFFCURVE",
"655 33 CURVE SMOOTH",
"640 12 OFFCURVE",
"617 0 OFFCURVE",
"593 0 CURVE SMOOTH"
);
}
);
width = 800;
}
);
unicode = 004C;
},
{
glyphname = M;
layers = (
{
layerId = "5DF6A5AF-1C8C-47E3-A702-CFF98FD4A394";
name = Regular;
paths = (
{
closed = 1;
nodes = (
"698 523 OFFCURVE",
"673 560 OFFCURVE",
"641 591 CURVE SMOOTH",
"609 623 OFFCURVE",
"572 648 OFFCURVE",
"531 666 CURVE SMOOTH",
"488 684 OFFCURVE",
"443 693 OFFCURVE",
"396 693 CURVE SMOOTH",
"350 693 OFFCURVE",
"304 684 OFFCURVE",
"261 666 CURVE SMOOTH",
"220 648 OFFCURVE",
"183 623 OFFCURVE",
"151 591 CURVE SMOOTH",
"120 560 OFFCURVE",
"95 523 OFFCURVE",
"77 481 CURVE SMOOTH",
"59 439 OFFCURVE",
"50 393 OFFCURVE",
"50 346 CURVE SMOOTH",
"50 300 OFFCURVE",
"59 254 OFFCURVE",
"77 212 CURVE SMOOTH",
"95 170 OFFCURVE",
"120 133 OFFCURVE",
"151 102 CURVE SMOOTH",
"183 70 OFFCURVE",
"220 45 OFFCURVE",
"261 27 CURVE SMOOTH",
"304 9 OFFCURVE",
"350 0 OFFCURVE",
"396 0 CURVE SMOOTH",
"443 0 OFFCURVE",
"488 9 OFFCURVE",
"531 27 CURVE SMOOTH",
"572 45 OFFCURVE",
"609 70 OFFCURVE",
"641 102 CURVE SMOOTH",
"673 133 OFFCURVE",
"698 170 OFFCURVE",
"715 212 CURVE SMOOTH",
"734 254 OFFCURVE",
"743 300 OFFCURVE",
"743 346 CURVE SMOOTH",
"743 393 OFFCURVE",
"734 439 OFFCURVE",
"715 481 CURVE SMOOTH"
);
},
{
closed = 1;
nodes = (
"432 563 OFFCURVE",
"466 554 OFFCURVE",
"496 538 CURVE",
"207 242 LINE",
"190 273 OFFCURVE",
"180 309 OFFCURVE",
"180 346 CURVE SMOOTH",
"180 466 OFFCURVE",
"277 563 OFFCURVE",
"396 563 CURVE SMOOTH"
);
},
{
closed = 1;
nodes = (
"370 130 OFFCURVE",
"345 135 OFFCURVE",
"321 144 CURVE",
"598 426 LINE",
"607 401 OFFCURVE",
"613 375 OFFCURVE",
"613 346 CURVE SMOOTH",
"613 227 OFFCURVE",
"516 130 OFFCURVE",
"396 130 CURVE SMOOTH"
);
}
);
width = 800;
}
);
unicode = 004D;
},
{
glyphname = N;
layers = (
{
layerId = "5DF6A5AF-1C8C-47E3-A702-CFF98FD4A394";
name = Regular;
paths = (
{
closed = 1;
nodes = (
"251 698 OFFCURVE",
"124 570 OFFCURVE",
"124 413 CURVE SMOOTH",
"124 255 OFFCURVE",
"409 -1 OFFCURVE",
"409 -1 CURVE SMOOTH",
"409 -1 OFFCURVE",
"694 255 OFFCURVE",
"694 413 CURVE SMOOTH",
"694 570 OFFCURVE",
"566 698 OFFCURVE",
"409 698 CURVE SMOOTH"
);
},
{
closed = 1;
nodes = (
"331 275 OFFCURVE",
"268 338 OFFCURVE",
"268 416 CURVE SMOOTH",
"268 494 OFFCURVE",
"331 557 OFFCURVE",
"409 557 CURVE SMOOTH",
"487 557 OFFCURVE",
"550 494 OFFCURVE",
"550 416 CURVE SMOOTH",
"550 338 OFFCURVE",
"487 275 OFFCURVE",
"409 275 CURVE SMOOTH"
);
}
);
width = 800;
}
);
unicode = 004E;
},
{
glyphname = O;
layers = (
{
layerId = "5DF6A5AF-1C8C-47E3-A702-CFF98FD4A394";
name = Regular;
paths = (
{
closed = 1;
nodes = (
"471 421 LINE",
"729 421 LINE",
"521 270 LINE",
"600 25 LINE",
"392 176 LINE",
"184 25 LINE",
"263 270 LINE",
"55 421 LINE",
"313 421 LINE",
"392 665 LINE"
);
},
{
closed = 1;
nodes = (
"595 -1 OFFCURVE",
"589 1 OFFCURVE",
"584 4 CURVE SMOOTH",
"392 144 LINE",
"199 4 LINE SMOOTH",
"190 -3 OFFCURVE",
"178 -3 OFFCURVE",
"168 4 CURVE SMOOTH",
"159 11 OFFCURVE",
"155 23 OFFCURVE",
"159 33 CURVE SMOOTH",
"232 260 LINE",
"40 400 LINE SMOOTH",
"31 406 OFFCURVE",
"27 418 OFFCURVE",
"30 429 CURVE SMOOTH",
"34 440 OFFCURVE",
"44 447 OFFCURVE",
"55 447 CURVE SMOOTH",
"293 447 LINE",
"367 674 LINE SMOOTH",
"370 684 OFFCURVE",
"381 692 OFFCURVE",
"392 692 CURVE SMOOTH",
"403 692 OFFCURVE",
"414 684 OFFCURVE",
"417 674 CURVE SMOOTH",
"491 447 LINE",
"729 447 LINE SMOOTH",
"740 447 OFFCURVE",
"750 440 OFFCURVE",
"754 429 CURVE SMOOTH",
"757 418 OFFCURVE",
"753 406 OFFCURVE",
"744 400 CURVE SMOOTH",
"551 260 LINE",
"625 33 LINE SMOOTH",
"629 23 OFFCURVE",
"625 11 OFFCURVE",
"615 4 CURVE SMOOTH",
"611 1 OFFCURVE",
"605 -1 OFFCURVE",
"600 -1 CURVE SMOOTH"
);
},
{
closed = 1;
nodes = (
"397 203 OFFCURVE",
"403 201 OFFCURVE",
"407 198 CURVE SMOOTH",
"550 94 LINE",
"495 262 LINE SMOOTH",
"492 273 OFFCURVE",
"496 284 OFFCURVE",
"505 291 CURVE SMOOTH",
"647 395 LINE",
"471 395 LINE SMOOTH",
"460 395 OFFCURVE",
"450 402 OFFCURVE",
"446 413 CURVE SMOOTH",
"392 580 LINE",
"338 413 LINE SMOOTH",
"334 402 OFFCURVE",
"324 395 OFFCURVE",
"313 395 CURVE SMOOTH",
"137 395 LINE",
"279 291 LINE SMOOTH",
"288 284 OFFCURVE",
"292 273 OFFCURVE",
"288 262 CURVE SMOOTH",
"234 94 LINE",
"376 198 LINE SMOOTH",
"381 201 OFFCURVE",
"387 203 OFFCURVE",
"392 203 CURVE SMOOTH"
);
}
);
width = 800;
}
);
unicode = 004F;
},
{
glyphname = P;
layers = (
{
layerId = "5DF6A5AF-1C8C-47E3-A702-CFF98FD4A394";
name = Regular;
paths = (
{
closed = 1;
nodes = (
"534 420 OFFCURVE",
"553 476 OFFCURVE",
"553 523 CURVE SMOOTH",
"553 531 LINE SMOOTH",
"553 622 OFFCURVE",
"479 696 OFFCURVE",
"388 696 CURVE SMOOTH",
"379 696 LINE SMOOTH",
"288 696 OFFCURVE",
"214 622 OFFCURVE",
"214 531 CURVE SMOOTH",
"214 523 LINE SMOOTH",
"214 476 OFFCURVE",
"234 420 OFFCURVE",
"265 377 CURVE",
"173 324 OFFCURVE",
"109 211 OFFCURVE",
"109 80 CURVE SMOOTH",
"109 -33 OFFCURVE",
"658 -35 OFFCURVE",
"658 80 CURVE SMOOTH",
"658 211 OFFCURVE",
"595 324 OFFCURVE",
"503 377 CURVE"
);
}
);
width = 800;
}
);
unicode = 0050;
},
{
glyphname = Q;
layers = (
{
layerId = "5DF6A5AF-1C8C-47E3-A702-CFF98FD4A394";
name = Regular;
paths = (
{
closed = 1;
nodes = (
"674 318 OFFCURVE",
"689 386 OFFCURVE",
"677 453 CURVE SMOOTH",
"665 521 OFFCURVE",
"627 580 OFFCURVE",
"571 619 CURVE SMOOTH",
"515 658 OFFCURVE",
"447 673 OFFCURVE",
"379 661 CURVE SMOOTH",
"312 649 OFFCURVE",
"253 612 OFFCURVE",
"214 556 CURVE SMOOTH",
"175 499 OFFCURVE",
"159 431 OFFCURVE",
"171 364 CURVE SMOOTH",
"179 322 OFFCURVE",
"196 284 OFFCURVE",
"221 252 CURVE",
"151 152 LINE SMOOTH",
"127 117 OFFCURVE",
"136 70 OFFCURVE",
"170 46 CURVE SMOOTH",
"204 22 OFFCURVE",
"251 31 OFFCURVE",
"275 65 CURVE SMOOTH",
"345 165 LINE",
"384 152 OFFCURVE",
"427 149 OFFCURVE",
"469 156 CURVE SMOOTH",
"536 168 OFFCURVE",
"595 206 OFFCURVE",
"634 262 CURVE SMOOTH"
);
},
{
closed = 1;
nodes = (
"363 300 OFFCURVE",
"358 304 OFFCURVE",
"353 308 CURVE SMOOTH",
"347 312 OFFCURVE",
"342 315 OFFCURVE",
"337 317 CURVE",
"292 360 OFFCURVE",
"284 429 OFFCURVE",
"320 481 CURVE SMOOTH",
"360 538 OFFCURVE",
"439 552 OFFCURVE",
"497 512 CURVE SMOOTH",
"554 472 OFFCURVE",
"568 393 OFFCURVE",
"528 336 CURVE SMOOTH",
"491 284 OFFCURVE",
"423 268 OFFCURVE",
"367 296 CURVE"
);
}
);
width = 800;
}
);
unicode = 0051;
},
{
glyphname = R;
layers = (
{
layerId = "5DF6A5AF-1C8C-47E3-A702-CFF98FD4A394";
name = Regular;
paths = (
{
closed = 1;
nodes = (
"186 675 LINE SMOOTH",
"95 675 OFFCURVE",
"21 601 OFFCURVE",
"21 510 CURVE SMOOTH",
"21 271 LINE SMOOTH",
"21 180 OFFCURVE",
"95 106 OFFCURVE",
"186 106 CURVE SMOOTH",
"464 106 LINE",
"475 65 OFFCURVE",
"585 -26 OFFCURVE",
"601 7 CURVE SMOOTH",
"607 18 OFFCURVE",
"621 62 OFFCURVE",
"640 108 CURVE",
"718 122 OFFCURVE",
"778 189 OFFCURVE",
"778 271 CURVE SMOOTH",
"778 510 LINE SMOOTH",
"778 601 OFFCURVE",
"704 675 OFFCURVE",
"613 675 CURVE"
);
}
);
width = 800;
}
);
unicode = 0052;
},
{
glyphname = S;
layers = (
{
layerId = "5DF6A5AF-1C8C-47E3-A702-CFF98FD4A394";
name = Regular;
paths = (
{
closed = 1;
nodes = (
"681 452 OFFCURVE",
"669 480 OFFCURVE",
"653 505 CURVE",
"670 534 OFFCURVE",
"666 572 OFFCURVE",
"641 597 CURVE SMOOTH",
"616 622 OFFCURVE",
"577 626 OFFCURVE",
"548 608 CURVE",
"523 623 OFFCURVE",
"496 634 OFFCURVE",
"468 641 CURVE",
"460 674 OFFCURVE",
"430 699 OFFCURVE",
"394 699 CURVE SMOOTH",
"358 699 OFFCURVE",
"328 674 OFFCURVE",
"320 641 CURVE",
"292 634 OFFCURVE",
"265 623 OFFCURVE",
"240 608 CURVE",
"211 626 OFFCURVE",
"172 622 OFFCURVE",
"147 597 CURVE SMOOTH",
"122 572 OFFCURVE",
"118 534 OFFCURVE",
"135 505 CURVE",
"119 480 OFFCURVE",
"107 452 OFFCURVE",
"100 422 CURVE",
"68 414 OFFCURVE",
"44 384 OFFCURVE",
"44 350 CURVE SMOOTH",
"44 316 OFFCURVE",
"67 287 OFFCURVE",
"98 278 CURVE",
"105 246 OFFCURVE",
"117 217 OFFCURVE",
"133 190 CURVE",
"118 162 OFFCURVE",
"123 126 OFFCURVE",
"147 102 CURVE SMOOTH",
"170 79 OFFCURVE",
"205 74 OFFCURVE",
"233 88 CURVE",
"260 71 OFFCURVE",
"291 58 OFFCURVE",
"323 50 CURVE",
"333 21 OFFCURVE",
"361 0 OFFCURVE",
"394 0 CURVE SMOOTH",
"427 0 OFFCURVE",
"455 21 OFFCURVE",
"465 50 CURVE",
"497 58 OFFCURVE",
"528 71 OFFCURVE",
"555 88 CURVE",
"583 74 OFFCURVE",
"618 79 OFFCURVE",
"641 102 CURVE SMOOTH",
"665 126 OFFCURVE",
"670 162 OFFCURVE",
"655 190 CURVE",
"671 217 OFFCURVE",
"683 246 OFFCURVE",
"691 278 CURVE",
"721 287 OFFCURVE",
"744 316 OFFCURVE",
"744 350 CURVE SMOOTH",
"744 384 OFFCURVE",
"720 414 OFFCURVE",
"688 422 CURVE"
);
},
{
closed = 1;
nodes = (
"312 198 OFFCURVE",
"246 264 OFFCURVE",
"246 346 CURVE SMOOTH",
"246 428 OFFCURVE",
"312 494 OFFCURVE",
"394 494 CURVE SMOOTH",
"476 494 OFFCURVE",
"542 428 OFFCURVE",
"542 346 CURVE SMOOTH",
"542 264 OFFCURVE",
"476 198 OFFCURVE",
"394 198 CURVE SMOOTH"
);
}
);
width = 800;
}
);
unicode = 0053;
},
{
glyphname = T;
layers = (
{
layerId = "5DF6A5AF-1C8C-47E3-A702-CFF98FD4A394";
name = Regular;
paths = (
{
closed = 1;
nodes = (
"678 568 OFFCURVE",
"662 589 OFFCURVE",
"642 607 CURVE SMOOTH",
"621 625 OFFCURVE",
"601 635 OFFCURVE",
"586 635 CURVE SMOOTH",
"579 635 OFFCURVE",
"574 633 OFFCURVE",
"569 629 CURVE SMOOTH",
"520 579 LINE SMOOTH",
"518 578 OFFCURVE",
"518 574 OFFCURVE",
"520 572 CURVE SMOOTH",
"627 466 LINE SMOOTH",
"628 465 OFFCURVE",
"629 464 OFFCURVE",
"630 464 CURVE SMOOTH",
"632 464 OFFCURVE",
"633 465 OFFCURVE",
"634 466 CURVE SMOOTH",
"683 515 LINE SMOOTH",
"689 520 OFFCURVE",
"694 531 OFFCURVE",
"685 551 CURVE SMOOTH"
);
},
{
closed = 1;
nodes = (
"457 514 OFFCURVE",
"454 514 OFFCURVE",
"452 512 CURVE SMOOTH",
"163 223 LINE SMOOTH",
"163 222 OFFCURVE",
"162 222 OFFCURVE",
"162 221 CURVE SMOOTH",
"115 67 LINE SMOOTH",
"115 65 OFFCURVE",
"115 64 OFFCURVE",
"116 62 CURVE SMOOTH",
"117 61 OFFCURVE",
"119 61 OFFCURVE",
"120 61 CURVE SMOOTH",
"120 61 OFFCURVE",
"121 61 OFFCURVE",
"121 61 CURVE SMOOTH",
"275 108 LINE SMOOTH",
"276 108 OFFCURVE",
"277 108 OFFCURVE",
"277 109 CURVE SMOOTH",
"566 398 LINE SMOOTH",
"567 399 OFFCURVE",
"568 400 OFFCURVE",
"568 402 CURVE SMOOTH",
"568 403 OFFCURVE",
"567 404 OFFCURVE",
"566 405 CURVE SMOOTH",
"459 512 LINE SMOOTH"
);
}
);
width = 800;
}
);
unicode = 0054;
},
{
glyphname = U;
layers = (
{
layerId = "5DF6A5AF-1C8C-47E3-A702-CFF98FD4A394";
name = Regular;
paths = (
{
closed = 1;
nodes = (
"390 236 OFFCURVE",
"406 236 OFFCURVE",
"415 242 CURVE SMOOTH",
"771 476 LINE SMOOTH",
"780 482 OFFCURVE",
"787 496 OFFCURVE",
"787 507 CURVE SMOOTH",
"787 549 LINE SMOOTH",
"787 560 OFFCURVE",
"778 569 OFFCURVE",
"767 569 CURVE SMOOTH",
"27 569 LINE SMOOTH",
"16 569 OFFCURVE",
"7 560 OFFCURVE",
"7 549 CURVE SMOOTH",
"7 495 LINE SMOOTH",
"7 484 OFFCURVE",
"15 470 OFFCURVE",
"24 465 CURVE SMOOTH",
"381 242 LINE SMOOTH"
);
},
{
closed = 1;
nodes = (
"407 81 OFFCURVE",
"392 81 OFFCURVE",
"383 87 CURVE SMOOTH",
"24 311 LINE SMOOTH",
"15 317 OFFCURVE",
"7 313 OFFCURVE",
"7 302 CURVE SMOOTH",
"7 24 LINE SMOOTH",
"7 13 OFFCURVE",
"16 4 OFFCURVE",
"27 4 CURVE SMOOTH",
"767 4 LINE SMOOTH",
"778 4 OFFCURVE",
"787 13 OFFCURVE",
"787 24 CURVE SMOOTH",
"787 311 LINE SMOOTH",
"787 322 OFFCURVE",
"780 326 OFFCURVE",
"771 320 CURVE SMOOTH",
"416 87 LINE SMOOTH"
);
}
);
width = 800;
}
);
unicode = 0055;
},
{
glyphname = V;
layers = (
{
layerId = "5DF6A5AF-1C8C-47E3-A702-CFF98FD4A394";
name = Regular;
paths = (
{
closed = 1;
nodes = (
"564 491 LINE",
"564 584 OFFCURVE",
"488 659 OFFCURVE",
"395 659 CURVE SMOOTH",
"302 659 OFFCURVE",
"227 584 OFFCURVE",
"227 491 CURVE",
"78 491 LINE SMOOTH",
"67 491 OFFCURVE",
"60 482 OFFCURVE",
"61 471 CURVE SMOOTH",
"124 20 LINE SMOOTH",
"126 9 OFFCURVE",
"136 0 OFFCURVE",
"147 0 CURVE SMOOTH",
"375 0 LINE SMOOTH",
"386 0 OFFCURVE",
"404 0 OFFCURVE",
"415 0 CURVE SMOOTH",
"644 0 LINE SMOOTH",
"655 0 OFFCURVE",
"665 9 OFFCURVE",
"666 20 CURVE SMOOTH",
"729 471 LINE SMOOTH",
"731 482 OFFCURVE",
"723 491 OFFCURVE",
"712 491 CURVE SMOOTH"
);
},
{
closed = 1;
nodes = (
"444 579 OFFCURVE",
"484 540 OFFCURVE",
"484 491 CURVE",
"415 491 LINE SMOOTH",
"404 491 OFFCURVE",
"386 491 OFFCURVE",
"375 491 CURVE SMOOTH",
"307 491 LINE",
"307 540 OFFCURVE",
"347 579 OFFCURVE",
"395 579 CURVE SMOOTH"
);
}
);
width = 800;
}
);
unicode = 0056;
},
{
glyphname = W;
layers = (
{
layerId = "5DF6A5AF-1C8C-47E3-A702-CFF98FD4A394";
name = Regular;
paths = (
{
closed = 1;
nodes = (
"129 0 LINE SMOOTH",
"95 0 OFFCURVE",
"69 27 OFFCURVE",
"69 60 CURVE SMOOTH",
"69 639 LINE SMOOTH",
"69 672 OFFCURVE",
"95 699 OFFCURVE",
"129 699 CURVE SMOOTH",
"528 699 LINE SMOOTH",
"561 699 OFFCURVE",
"588 672 OFFCURVE",
"588 639 CURVE SMOOTH",
"588 548 LINE SMOOTH",
"588 514 OFFCURVE",
"561 514 OFFCURVE",
"528 514 CURVE SMOOTH",
"494 514 OFFCURVE",
"468 514 OFFCURVE",
"468 548 CURVE SMOOTH",
"468 579 LINE",
"189 579 LINE",
"189 120 LINE",
"468 120 LINE",
"468 196 LINE SMOOTH",
"468 229 OFFCURVE",
"494 230 OFFCURVE",
"528 230 CURVE SMOOTH",
"561 230 OFFCURVE",
"588 229 OFFCURVE",
"588 196 CURVE SMOOTH",
"588 60 LINE SMOOTH",
"588 27 OFFCURVE",
"561 0 OFFCURVE",
"528 0 CURVE SMOOTH"
);
},
{
closed = 1;
nodes = (
"639 484 LINE SMOOTH",
"631 491 OFFCURVE",
"625 489 OFFCURVE",
"625 478 CURVE SMOOTH",
"625 448 LINE",
"425 448 LINE SMOOTH",
"384 448 OFFCURVE",
"390 415 OFFCURVE",
"390 373 CURVE SMOOTH",
"390 331 OFFCURVE",
"384 297 OFFCURVE",
"425 297 CURVE SMOOTH",
"625 297 LINE",
"625 268 LINE SMOOTH",
"625 257 OFFCURVE",
"631 254 OFFCURVE",
"639 262 CURVE SMOOTH",
"736 359 LINE SMOOTH",
"744 366 OFFCURVE",
"744 379 OFFCURVE",
"736 387 CURVE SMOOTH"
);
}
);
width = 800;
}
);
unicode = 0057;
},
{
glyphname = X;
layers = (
{
layerId = "5DF6A5AF-1C8C-47E3-A702-CFF98FD4A394";
name = Regular;
paths = (
{
closed = 1;
nodes = (
"635 744 OFFCURVE",
"409 577 OFFCURVE",
"399 570 CURVE",
"389 577 OFFCURVE",
"163 744 OFFCURVE",
"38 569 CURVE SMOOTH",
"-85 398 OFFCURVE",
"227 163 OFFCURVE",
"390 4 CURVE",
"390 4 OFFCURVE",
"393 0 OFFCURVE",
"399 0 CURVE SMOOTH",
"405 0 OFFCURVE",
"408 4 OFFCURVE",
"408 4 CURVE",
"571 163 OFFCURVE",
"883 398 OFFCURVE",
"760 569 CURVE SMOOTH"
);
}
);
width = 800;
}
);
unicode = 0058;
},
{
glyphname = Z;
layers = (
{
layerId = "5DF6A5AF-1C8C-47E3-A702-CFF98FD4A394";
name = Regular;
paths = (
{
closed = 1;
nodes = (
"317 339 OFFCURVE",
"273 369 OFFCURVE",
"224 389 CURVE SMOOTH",
"174 411 OFFCURVE",
"120 422 OFFCURVE",
"65 422 CURVE SMOOTH",
"58 422 OFFCURVE",
"53 417 OFFCURVE",
"53 410 CURVE SMOOTH",
"53 276 LINE SMOOTH",
"53 270 OFFCURVE",
"58 265 OFFCURVE",
"65 265 CURVE SMOOTH",
"204 265 OFFCURVE",
"318 151 OFFCURVE",
"318 12 CURVE SMOOTH",
"318 5 OFFCURVE",
"323 0 OFFCURVE",
"329 0 CURVE SMOOTH",
"463 0 LINE SMOOTH",
"470 0 OFFCURVE",
"475 5 OFFCURVE",
"475 12 CURVE SMOOTH",
"475 67 OFFCURVE",
"464 121 OFFCURVE",
"442 171 CURVE SMOOTH",
"422 220 OFFCURVE",
"392 264 OFFCURVE",
"354 302 CURVE SMOOTH"
);
},
{
closed = 1;
nodes = (
"656 351 OFFCURVE",
"607 424 OFFCURVE",
"545 486 CURVE SMOOTH",
"482 549 OFFCURVE",
"410 598 OFFCURVE",
"329 632 CURVE SMOOTH",
"245 667 OFFCURVE",
"156 685 OFFCURVE",
"65 685 CURVE SMOOTH",
"58 685 OFFCURVE",
"53 680 OFFCURVE",
"53 674 CURVE SMOOTH",
"53 539 LINE SMOOTH",
"53 533 OFFCURVE",
"58 528 OFFCURVE",
"65 528 CURVE SMOOTH",
"350 528 OFFCURVE",
"584 296 OFFCURVE",
"586 11 CURVE SMOOTH",
"587 5 OFFCURVE",
"592 0 OFFCURVE",
"598 0 CURVE SMOOTH",
"732 0 LINE SMOOTH",
"735 0 OFFCURVE",
"738 1 OFFCURVE",
"740 3 CURVE SMOOTH",
"742 5 OFFCURVE",
"744 8 OFFCURVE",
"744 11 CURVE SMOOTH",
"743 101 OFFCURVE",
"725 188 OFFCURVE",
"690 270 CURVE SMOOTH"
);
},
{
closed = 1;
nodes = (
"203 35 OFFCURVE",
"169 0 OFFCURVE",
"127 0 CURVE SMOOTH",
"85 0 OFFCURVE",
"51 35 OFFCURVE",
"51 77 CURVE SMOOTH",
"51 119 OFFCURVE",
"85 153 OFFCURVE",
"127 153 CURVE SMOOTH",
"169 153 OFFCURVE",
"203 119 OFFCURVE",
"203 77 CURVE SMOOTH"
);
}
);
width = 800;
}
);
unicode = 005A;
},
{
glyphname = a;
layers = (
{
layerId = "5DF6A5AF-1C8C-47E3-A702-CFF98FD4A394";
name = Regular;
paths = (
{
closed = 1;
nodes = (
"282.115 217.338 OFFCURVE",
"268.545 233.094 OFFCURVE",
"258.342 251.311 CURVE SMOOTH",
"248.51 268.867 OFFCURVE",
"242.246 287.914 OFFCURVE",
"239.726 307.923 CURVE SMOOTH",
"239.18 312.26 OFFCURVE",
"238.827 316.598 OFFCURVE",
"238.643 320.93 CURVE",
"147.677 391.542 LINE SMOOTH",
"116.426 415.8 OFFCURVE",
"110.737 460.962 OFFCURVE",
"134.996 492.213 CURVE SMOOTH",
"170.561 538.031 LINE SMOOTH",
"194.821 569.282 OFFCURVE",
"239.982 574.972 OFFCURVE",
"271.233 550.713 CURVE SMOOTH",
"362.689 479.72 LINE",
"366.625 480.527 OFFCURVE",
"370.603 481.192 OFFCURVE",
"374.621 481.698 CURVE SMOOTH",
"394.629 484.218 OFFCURVE",
"414.635 482.874 OFFCURVE",
"434.08 477.701 CURVE SMOOTH",
"454.258 472.335 OFFCURVE",
"472.885 463.096 OFFCURVE",
"489.446 450.241 CURVE SMOOTH",
"618.948 349.715 LINE",
"615.788 403.004 OFFCURVE",
"590.585 454.728 OFFCURVE",
"545.202 489.955 CURVE SMOOTH",
"344.816 645.505 LINE SMOOTH",
"261.295 710.337 OFFCURVE",
"140.602 695.134 OFFCURVE",
"75.7686 611.614 CURVE SMOOTH",
"40.2036 565.795 LINE SMOOTH",
"-25 482.275 OFFCURVE",
"-9 361.582 OFFCURVE",
"74.0952 296.749 CURVE SMOOTH",
"274.481 141.2 LINE SMOOTH",
"319.585 106.188 OFFCURVE",
"375.529 94.5308 OFFCURVE",
"427.663 104.358 CURVE",
"298.675 204.484 LINE SMOOTH"
);
},
{
closed = 1;
nodes = (
"339.952 268.561 LINE SMOOTH",
"305.05 295.653 OFFCURVE",
"298.718 345.909 OFFCURVE",
"325.811 380.811 CURVE SMOOTH",
"352.903 415.712 OFFCURVE",
"403.161 422.043 OFFCURVE",
"438.062 394.952 CURVE SMOOTH",
"762.382 143.198 LINE SMOOTH",
"797.283 116.106 OFFCURVE",
"803.613 65.8501 OFFCURVE",
"776.522 30.9482 CURVE SMOOTH",
"749.429 -4 OFFCURVE",
"699.172 -10 OFFCURVE",
"664.271 16.8081 CURVE SMOOTH"
);
}
);
width = 800;
}
);
unicode = 0061;
},
{
glyphname = b;
layers = (
{
layerId = "5DF6A5AF-1C8C-47E3-A702-CFF98FD4A394";
name = Regular;
paths = (
{
closed = 1;
nodes = (
"48 560 OFFCURVE",
"59 584 OFFCURVE",
"80 598 CURVE SMOOTH",
"98 610 OFFCURVE",
"248 606 OFFCURVE",
"398 606 CURVE SMOOTH",
"548 606 OFFCURVE",
"698 610 OFFCURVE",
"715 598 CURVE SMOOTH",
"749 575 OFFCURVE",
"758 529 OFFCURVE",
"735 494 CURVE SMOOTH",
"460 89 LINE SMOOTH",
"446 68 OFFCURVE",
"422 56 OFFCURVE",
"398 56 CURVE SMOOTH",
"373 56 OFFCURVE",
"349 68 OFFCURVE",
"335 89 CURVE SMOOTH",
"60 494 LINE SMOOTH",
"52 507 OFFCURVE",
"48 522 OFFCURVE",
"48 536 CURVE SMOOTH"
);
}
);
width = 800;
}
);
unicode = 0062;
},
{
glyphname = c;
layers = (
{
layerId = "5DF6A5AF-1C8C-47E3-A702-CFF98FD4A394";
name = Regular;
paths = (
{
closed = 1;
nodes = (
"744 122 OFFCURVE",
"733 99 OFFCURVE",
"712 84 CURVE SMOOTH",
"694 72 OFFCURVE",
"544 77 OFFCURVE",
"394 77 CURVE SMOOTH",
"244 77 OFFCURVE",
"95 72 OFFCURVE",
"77 84 CURVE SMOOTH",
"43 107 OFFCURVE",
"34 154 OFFCURVE",
"57 188 CURVE SMOOTH",
"332 594 LINE SMOOTH",
"346 614 OFFCURVE",
"370 626 OFFCURVE",
"394 626 CURVE SMOOTH",
"419 626 OFFCURVE",
"443 614 OFFCURVE",
"457 594 CURVE SMOOTH",
"732 188 LINE SMOOTH",
"740 175 OFFCURVE",
"744 161 OFFCURVE",
"744 146 CURVE SMOOTH"
);
}
);
width = 800;
}
);
unicode = 0063;
},
{
glyphname = d;
layers = (
{
layerId = "5DF6A5AF-1C8C-47E3-A702-CFF98FD4A394";
name = Regular;
paths = (
{
closed = 1;
nodes = (
"197 0 OFFCURVE",
"173 12 OFFCURVE",
"159 33 CURVE SMOOTH",
"147 50 OFFCURVE",
"151 200 OFFCURVE",
"151 350 CURVE SMOOTH",
"151 500 OFFCURVE",
"147 650 OFFCURVE",
"159 667 CURVE SMOOTH",
"182 701 OFFCURVE",
"228 710 OFFCURVE",
"263 687 CURVE SMOOTH",
"668 412 LINE SMOOTH",
"689 398 OFFCURVE",
"701 375 OFFCURVE",
"701 350 CURVE SMOOTH",
"701 325 OFFCURVE",
"689 302 OFFCURVE",
"668 288 CURVE SMOOTH",
"263 13 LINE SMOOTH",
"250 4 OFFCURVE",
"235 0 OFFCURVE",
"221 0 CURVE SMOOTH"
);
}
);
width = 800;
}
);
unicode = 0064;
},
{
glyphname = e;
layers = (
{
layerId = "5DF6A5AF-1C8C-47E3-A702-CFF98FD4A394";
name = Regular;
paths = (
{
closed = 1;
nodes = (
"621 700 OFFCURVE",
"644 688 OFFCURVE",
"659 667 CURVE SMOOTH",
"670 650 OFFCURVE",
"666 500 OFFCURVE",
"666 350 CURVE SMOOTH",
"666 200 OFFCURVE",
"670 50 OFFCURVE",
"659 33 CURVE SMOOTH",
"636 -1 OFFCURVE",
"589 -10 OFFCURVE",
"555 13 CURVE SMOOTH",
"149 288 LINE SMOOTH",
"129 302 OFFCURVE",
"116 325 OFFCURVE",
"116 350 CURVE SMOOTH",
"116 375 OFFCURVE",
"129 398 OFFCURVE",
"149 412 CURVE SMOOTH",
"555 687 LINE SMOOTH",
"567 696 OFFCURVE",
"582 700 OFFCURVE",
"597 700 CURVE SMOOTH"
);
}
);
width = 800;
}
);
unicode = 0065;
},
{
glyphname = f;
layers = (
{
layerId = "5DF6A5AF-1C8C-47E3-A702-CFF98FD4A394";
name = Regular;
paths = (
{
closed = 1;
nodes = (
"87 697 LINE SMOOTH",
"65 697 OFFCURVE",
"47 679 OFFCURVE",
"47 657 CURVE SMOOTH",
"47 40 LINE SMOOTH",
"47 18 OFFCURVE",
"65 0 OFFCURVE",
"87 0 CURVE SMOOTH",
"704 0 LINE SMOOTH",
"726 0 OFFCURVE",
"743 18 OFFCURVE",
"743 40 CURVE SMOOTH",
"743 657 LINE SMOOTH",
"743 679 OFFCURVE",
"726 697 OFFCURVE",
"704 697 CURVE SMOOTH"
);
},
{
closed = 1;
nodes = (
"542 306 LINE",
"542 50 LINE",
"445 50 LINE",
"445 306 LINE",
"377 306 LINE",
"377 398 LINE",
"445 398 LINE",
"445 398 OFFCURVE",
"445 436 OFFCURVE",
"445 477 CURVE SMOOTH",
"445 539 OFFCURVE",
"485 596 OFFCURVE",
"577 596 CURVE SMOOTH",
"614 596 OFFCURVE",
"642 592 OFFCURVE",
"642 592 CURVE",
"640 506 LINE",
"640 506 OFFCURVE",
"612 506 OFFCURVE",
"581 506 CURVE SMOOTH",
"548 506 OFFCURVE",
"542 491 OFFCURVE",
"542 465 CURVE SMOOTH",
"542 462 OFFCURVE",
"542 461 OFFCURVE",
"542 461 CURVE",
"542 454 OFFCURVE",
"542 437 OFFCURVE",
"542 398 CURVE",
"642 398 LINE",
"638 306 LINE"
);
}
);
width = 800;
}
);
unicode = 0066;
},
{
glyphname = g;
layers = (
{
layerId = "5DF6A5AF-1C8C-47E3-A702-CFF98FD4A394";
name = Regular;
paths = (
{
closed = 1;
nodes = (
"132 695 LINE SMOOTH",
"84 695 OFFCURVE",
"45 657 OFFCURVE",
"45 609 CURVE SMOOTH",
"45 87 LINE SMOOTH",
"45 39 OFFCURVE",
"84 0 OFFCURVE",
"132 0 CURVE SMOOTH",
"654 0 LINE SMOOTH",
"702 0 OFFCURVE",
"741 39 OFFCURVE",
"741 87 CURVE SMOOTH",
"741 609 LINE SMOOTH",
"741 657 OFFCURVE",
"702 695 OFFCURVE",
"654 695 CURVE SMOOTH"
);
},
{
closed = 1;
nodes = (
"575 159 OFFCURVE",
"265 79 OFFCURVE",
"123 274 CURVE",
"177 221 OFFCURVE",
"272 217 OFFCURVE",
"333 279 CURVE",
"297 274 OFFCURVE",
"272 309 OFFCURVE",
"315 327 CURVE",
"276 323 OFFCURVE",
"254 344 OFFCURVE",
"245 362 CURVE",
"255 371 OFFCURVE",
"265 376 OFFCURVE",
"284 377 CURVE",
"241 387 OFFCURVE",
"226 408 OFFCURVE",
"221 433 CURVE",
"233 436 OFFCURVE",
"247 439 OFFCURVE",
"256 438 CURVE",
"218 457 OFFCURVE",
"205 487 OFFCURVE",
"207 509 CURVE",
"274 484 OFFCURVE",
"317 464 OFFCURVE",
"352 445 CURVE SMOOTH",
"365 438 OFFCURVE",
"379 426 OFFCURVE",
"395 410 CURVE",
"416 464 OFFCURVE",
"441 520 OFFCURVE",
"484 547 CURVE",
"483 541 OFFCURVE",
"480 535 OFFCURVE",
"475 530 CURVE",
"488 542 OFFCURVE",
"504 549 OFFCURVE",
"520 551 CURVE",
"518 539 OFFCURVE",
"500 532 OFFCURVE",
"490 529 CURVE",
"498 531 OFFCURVE",
"540 550 OFFCURVE",
"545 539 CURVE SMOOTH",
"550 527 OFFCURVE",
"516 521 OFFCURVE",
"510 519 CURVE SMOOTH",
"505 518 OFFCURVE",
"501 516 OFFCURVE",
"497 514 CURVE",
"550 520 OFFCURVE",
"602 475 OFFCURVE",
"617 420 CURVE SMOOTH",
"618 416 OFFCURVE",
"619 412 OFFCURVE",
"620 407 CURVE",
"639 400 OFFCURVE",
"675 408 OFFCURVE",
"686 415 CURVE",
"678 395 OFFCURVE",
"657 380 OFFCURVE",
"625 378 CURVE",
"640 371 OFFCURVE",
"669 368 OFFCURVE",
"689 371 CURVE",
"676 358 OFFCURVE",
"656 346 OFFCURVE",
"621 346 CURVE"
);
}
);
width = 800;
}
);
unicode = 0067;
},
{
glyphname = h;
layers = (
{
layerId = "5DF6A5AF-1C8C-47E3-A702-CFF98FD4A394";
name = Regular;
paths = (
{
closed = 1;
nodes = (
"645 348 LINE",
"634 348 LINE",
"580 348 LINE",
"569 348 LINE",
"569 359 LINE",
"569 456 LINE",
"471 456 LINE",
"460 456 LINE",
"460 467 LINE",
"460 522 LINE",
"460 532 LINE",
"471 532 LINE",
"569 532 LINE",
"569 630 LINE",
"569 641 LINE",
"580 641 LINE",
"634 641 LINE",
"645 641 LINE",
"645 630 LINE",
"645 532 LINE",
"743 532 LINE",
"743 609 LINE SMOOTH",
"743 657 OFFCURVE",
"704 695 OFFCURVE",
"656 695 CURVE SMOOTH",
"134 695 LINE SMOOTH",
"86 695 OFFCURVE",
"48 657 OFFCURVE",
"48 609 CURVE SMOOTH",
"48 586 LINE",
"90 626 OFFCURVE",
"151 652 OFFCURVE",
"217 652 CURVE SMOOTH",
"452 652 LINE",
"478 652 LINE",
"460 634 LINE",
"408 578 LINE",
"404 575 LINE",
"400 575 LINE",
"370 575 LINE",
"399 546 OFFCURVE",
"416 502 OFFCURVE",
"416 453 CURVE SMOOTH",
"416 402 OFFCURVE",
"390 356 OFFCURVE",
"342 318 CURVE SMOOTH",
"302 287 OFFCURVE",
"299 277 OFFCURVE",
"299 256 CURVE SMOOTH",
"299 241 OFFCURVE",
"342 209 OFFCURVE",
"359 196 CURVE SMOOTH",
"364 193 LINE SMOOTH",
"439 136 OFFCURVE",
"460 99 OFFCURVE",
"460 20 CURVE SMOOTH",
"460 13 OFFCURVE",
"459 7 OFFCURVE",
"458 0 CURVE",
"656 0 LINE SMOOTH",
"704 0 OFFCURVE",
"743 39 OFFCURVE",
"743 87 CURVE SMOOTH",
"743 456 LINE",
"645 456 LINE",
"645 359 LINE"
);
},
{
closed = 1;
nodes = (
"289 528 OFFCURVE",
"238 590 OFFCURVE",
"181 592 CURVE SMOOTH",
"180 592 OFFCURVE",
"179 592 OFFCURVE",
"179 592 CURVE SMOOTH",
"157 592 OFFCURVE",
"137 583 OFFCURVE",
"123 566 CURVE SMOOTH",
"101 541 OFFCURVE",
"91 502 OFFCURVE",
"97 459 CURVE SMOOTH",
"107 384 OFFCURVE",
"160 327 OFFCURVE",
"221 325 CURVE SMOOTH",
"222 325 OFFCURVE",
"223 325 OFFCURVE",
"224 325 CURVE SMOOTH",
"247 325 OFFCURVE",
"265 333 OFFCURVE",
"279 348 CURVE SMOOTH",
"298 370 OFFCURVE",
"305 405 OFFCURVE",
"299 448 CURVE SMOOTH"
);
},
{
closed = 1;
nodes = (
"278 114 OFFCURVE",
"272 119 OFFCURVE",
"265 124 CURVE",
"247 129 OFFCURVE",
"228 132 OFFCURVE",
"208 133 CURVE SMOOTH",
"206 133 LINE SMOOTH",
"138 133 OFFCURVE",
"78 98 OFFCURVE",
"54 53 CURVE",
"67 22 OFFCURVE",
"98 0 OFFCURVE",
"134 0 CURVE SMOOTH",
"364 0 LINE",
"365 3 OFFCURVE",
"365 6 OFFCURVE",
"365 9 CURVE SMOOTH",
"365 17 OFFCURVE",
"364 25 OFFCURVE",
"362 32 CURVE SMOOTH",
"354 63 OFFCURVE",
"325 83 OFFCURVE",
"285 110 CURVE SMOOTH"
);
},
{
closed = 1;
nodes = (
"84 170 OFFCURVE",
"128 182 OFFCURVE",
"177 182 CURVE SMOOTH",
"183 182 OFFCURVE",
"189 182 OFFCURVE",
"195 182 CURVE",
"184 195 OFFCURVE",
"175 211 OFFCURVE",
"175 233 CURVE SMOOTH",
"175 244 OFFCURVE",
"177 256 OFFCURVE",
"181 267 CURVE",
"179 267 OFFCURVE",
"177 267 OFFCURVE",
"176 267 CURVE SMOOTH",
"124 267 OFFCURVE",
"80 284 OFFCURVE",
"48 312 CURVE",
"48 152 LINE"
);
}
);
width = 800;
}
);
unicode = 0068;
},
{
glyphname = i;
layers = (
{
layerId = "5DF6A5AF-1C8C-47E3-A702-CFF98FD4A394";
name = Regular;
paths = (
{
closed = 1;
nodes = (
"555 426 OFFCURVE",
"575 482 OFFCURVE",
"575 528 CURVE SMOOTH",
"575 537 LINE SMOOTH",
"575 628 OFFCURVE",
"501 702 OFFCURVE",
"410 702 CURVE SMOOTH",
"401 702 LINE SMOOTH",
"310 702 OFFCURVE",
"236 628 OFFCURVE",
"236 537 CURVE SMOOTH",
"236 528 LINE SMOOTH",
"236 482 OFFCURVE",
"255 426 OFFCURVE",
"286 382 CURVE",
"195 329 OFFCURVE",
"131 216 OFFCURVE",
"131 85 CURVE SMOOTH",
"131 -27 OFFCURVE",
"680 -29 OFFCURVE",
"680 85 CURVE SMOOTH",
"680 216 OFFCURVE",
"616 329 OFFCURVE",
"525 382 CURVE"
);
},
{
closed = 1;
nodes = (
"525 44 OFFCURVE",
"511 38 OFFCURVE",
"497 38 CURVE SMOOTH",
"497 38 OFFCURVE",
"497 38 OFFCURVE",
"497 38 CURVE SMOOTH",
"482 38 OFFCURVE",
"468 44 OFFCURVE",
"458 54 CURVE SMOOTH",
"405 107 LINE",
"353 54 LINE SMOOTH",
"343 44 OFFCURVE",
"329 38 OFFCURVE",
"314 38 CURVE SMOOTH",
"300 38 OFFCURVE",
"286 44 OFFCURVE",
"275 54 CURVE SMOOTH",
"254 76 OFFCURVE",
"254 111 OFFCURVE",
"275 133 CURVE SMOOTH",
"327 185 LINE",
"275 237 LINE SMOOTH",
"265 247 OFFCURVE",
"259 261 OFFCURVE",
"259 276 CURVE SMOOTH",
"259 291 OFFCURVE",
"265 305 OFFCURVE",
"275 315 CURVE SMOOTH",
"286 325 OFFCURVE",
"300 331 OFFCURVE",
"314 331 CURVE SMOOTH",
"329 331 OFFCURVE",
"343 325 OFFCURVE",
"353 315 CURVE SMOOTH",
"405 263 LINE",
"458 315 LINE SMOOTH",
"468 325 OFFCURVE",
"482 331 OFFCURVE",
"497 331 CURVE SMOOTH",
"511 331 OFFCURVE",
"525 325 OFFCURVE",
"536 315 CURVE SMOOTH",
"557 293 OFFCURVE",
"557 258 OFFCURVE",
"536 237 CURVE SMOOTH",
"484 185 LINE",
"536 133 LINE SMOOTH",
"557 111 OFFCURVE",
"557 76 OFFCURVE",
"536 54 CURVE SMOOTH"
);
}
);
width = 800;
}
);
unicode = 0069;
},
{
glyphname = t;
layers = (
{
layerId = "5DF6A5AF-1C8C-47E3-A702-CFF98FD4A394";
name = Regular;
paths = (
{
closed = 1;
nodes = (
"204 577 LINE SMOOTH",
"185 577 OFFCURVE",
"167 568 OFFCURVE",
"156 555 CURVE SMOOTH",
"155 554 LINE",
"14 385 LINE",
"8 378 LINE",
"3 370 OFFCURVE",
"0 360 OFFCURVE",
"0 350 CURVE SMOOTH",
"0 340 OFFCURVE",
"3 330 OFFCURVE",
"8 322 CURVE",
"14 315 LINE",
"155 146 LINE",
"156 145 LINE SMOOTH",
"167 132 OFFCURVE",
"185 123 OFFCURVE",
"204 123 CURVE SMOOTH",
"739 123 LINE SMOOTH",
"773 123 OFFCURVE",
"801 151 OFFCURVE",
"801 185 CURVE SMOOTH",
"801 350 LINE",
"801 515 LINE SMOOTH",
"801 549 OFFCURVE",
"773 577 OFFCURVE",
"739 577 CURVE SMOOTH"
);
},
{
closed = 1;
nodes = (
"144 300 OFFCURVE",
"122 322 OFFCURVE",
"122 350 CURVE SMOOTH",
"122 378 OFFCURVE",
"144 400 OFFCURVE",
"172 400 CURVE SMOOTH",
"200 400 OFFCURVE",
"222 378 OFFCURVE",
"222 350 CURVE SMOOTH",
"222 322 OFFCURVE",
"200 300 OFFCURVE",
"172 300 CURVE SMOOTH"
);
}
);
width = 800;
}
);
unicode = 0074;
},
{
glyphname = y;
layers = (
{
layerId = "5DF6A5AF-1C8C-47E3-A702-CFF98FD4A394";
name = Regular;
paths = (
{
closed = 1;
nodes = (
"310 83 LINE SMOOTH",
"280 83 OFFCURVE",
"255 104 OFFCURVE",
"251 134 CURVE",
"250 137 OFFCURVE",
"244 166 OFFCURVE",
"220 193 CURVE SMOOTH",
"187 231 OFFCURVE",
"133 251 OFFCURVE",
"61 251 CURVE SMOOTH",
"28 251 OFFCURVE",
"1 278 OFFCURVE",
"1 311 CURVE SMOOTH",
"0 556 LINE SMOOTH",
"0 572 OFFCURVE",
"6 587 OFFCURVE",
"17 599 CURVE SMOOTH",
"29 610 OFFCURVE",
"44 616 OFFCURVE",
"60 616 CURVE SMOOTH",
"726 616 LINE SMOOTH",
"759 616 OFFCURVE",
"786 589 OFFCURVE",
"786 556 CURVE SMOOTH",
"786 319 LINE SMOOTH",
"786 287 OFFCURVE",
"760 260 OFFCURVE",
"728 259 CURVE SMOOTH",
"725 259 OFFCURVE",
"676 257 OFFCURVE",
"629 238 CURVE SMOOTH",
"561 210 OFFCURVE",
"553 170 OFFCURVE",
"553 143 CURVE SMOOTH",
"553 110 OFFCURVE",
"526 83 OFFCURVE",
"493 83 CURVE SMOOTH"
);
},
{
closed = 1;
nodes = (
"441 203 LINE",
"460 269 OFFCURVE",
"510 320 OFFCURVE",
"587 350 CURVE SMOOTH",
"615 361 OFFCURVE",
"643 368 OFFCURVE",
"666 372 CURVE",
"666 496 LINE",
"120 496 LINE",
"121 367 LINE",
"223 353 OFFCURVE",
"283 306 OFFCURVE",
"317 265 CURVE SMOOTH",
"334 243 OFFCURVE",
"346 221 OFFCURVE",
"354 203 CURVE"
);
}
);
width = 800;
}
);
unicode = 0079;
},
{
glyphname = z;
layers = (
{
layerId = "5DF6A5AF-1C8C-47E3-A702-CFF98FD4A394";
name = Regular;
paths = (
{
closed = 1;
nodes = (
"212 694 OFFCURVE",
"56 539 OFFCURVE",
"56 346 CURVE SMOOTH",
"56 154 OFFCURVE",
"212 -2 OFFCURVE",
"404 -2 CURVE SMOOTH",
"597 -2 OFFCURVE",
"753 154 OFFCURVE",
"753 346 CURVE SMOOTH",
"753 539 OFFCURVE",
"597 694 OFFCURVE",
"404 694 CURVE SMOOTH"
);
},
{
closed = 1;
nodes = (
"581 376 LINE",
"640 317 LINE",
"640 258 LINE",
"581 199 LINE",
"404 199 LINE",
"404 317 LINE",
"463 317 LINE",
"404 376 LINE",
"345 376 LINE",
"345 199 LINE",
"228 199 LINE",
"228 376 LINE",
"169 376 LINE",
"169 494 LINE",
"404 494 LINE",
"404 435 LINE",
"463 494 LINE",
"640 494 LINE",
"640 376 LINE"
);
}
);
width = 800;
}
);
unicode = 007A;
},
